<svg id="Layer_1" data-name="Layer 1" xmlns="http://www.w3.org/2000/svg" viewBox="0 0 432 113"><defs><style>.cls-1{fill:#fff;}</style></defs><title>itechart logo 600-50</title><path class="cls-1" d="M210.09,77.06h11.49c-1.69,6.74-4.9,11.85-9.65,15.4S201.21,98,194,98q-13.1,0-20.44-8.91-7.35-8.67-7.35-24.79c0-10.27,2.37-18.32,7.12-24.08q7.35-8.92,20.43-8.91,13.8,0,21.37,8.65a33.66,33.66,0,0,1,5.95,12.29H205a14.09,14.09,0,0,0-2.3-3.61c-2-2.23-4.81-3.37-8.5-3.37A11,11,0,0,0,186,48.65q-4.12,4.82-4.13,15.89c0,7.37,1.38,12.6,4.13,15.63,2,2.57,5,3.88,9,3.88a12.51,12.51,0,0,0,6.65-1.69,3.64,3.64,0,0,0,1.27-.85c.38-.41.8-.84,1.26-1.34A11,11,0,0,1,206,78.26a6.2,6.2,0,0,1,4.14-1.2M93.17,96.8V28.69h23.42v-6a8.53,8.53,0,0,0-2.41-6.13A7.87,7.87,0,0,0,108.33,14H53.67V28.69h23.2V96.8Zm172.8-46a10.8,10.8,0,0,0-9.4-5,11.41,11.41,0,0,0-9.88,4.81c-2.31,3.21-3.45,7.62-3.45,13.24v33H227.63V14h7.79A7.43,7.43,0,0,1,241,16.39a8.12,8.12,0,0,1,2.29,5.79v19A18.31,18.31,0,0,1,255,32.05a22.07,22.07,0,0,1,14.46,1,26.19,26.19,0,0,1,10.81,9.14q4.33,6.26,4.34,17.34V96.8H269.19V63.58a36.22,36.22,0,0,0-.58-6.61A17.12,17.12,0,0,0,266,50.82M148.55,77.06H160c-1.69,6.74-4.9,11.85-9.65,15.4S139.67,98,132.47,98c-8.74,0-15.53-3-20.44-8.91q-7.34-8.67-7.34-24.79c0-10.27,2.37-18.32,7.11-24.08q7.35-8.92,20.44-8.91Q146,31.32,153.6,40,161,48.88,161,64.77v2.65a4.33,4.33,0,0,1-.24,1.69H121c.15,5,1.28,8.66,3.44,11.06,2,2.57,5,3.88,9,3.88A12.42,12.42,0,0,0,140,82.36a3.42,3.42,0,0,0,1.28-.85c.38-.41.8-.84,1.26-1.34a5.28,5.28,0,0,1,1.73-1.91,6.68,6.68,0,0,1,4.25-1.2M121,58.27h23.41c-.31-4.33-1.37-7.53-3.22-9.62s-4.81-3.37-8.51-3.37a11,11,0,0,0-8.24,3.37c-2.16,2.26-3.29,5.47-3.44,9.62"/><path class="cls-1" d="M365.41,96.8V65.73A41.18,41.18,0,0,1,368.06,50a26,26,0,0,1,7.23-10.23,27.21,27.21,0,0,1,10.21-5.28,42.52,42.52,0,0,1,12.07-1.7h2.28V49.85h-5.28c-4.43,0-7.73,1.14-9.88,3.38s-3.21,5.76-3.21,10.59v33ZM34.87,14H45.08V28.66H28.44V20.44q0-6.45,6.44-6.44M3,79.51H19.89V96.78H3V79.51ZM9.45,35.72H19.89v17.7H3v-11q0-6.75,6.45-6.74m19,0H45.11V96.78H28.44ZM429.17,96.8a111.51,111.51,0,0,1-16.42-.27q-8.85-.69-8.84-11.79V14h8.26a7.17,7.17,0,0,1,5.28,2.39,8.12,8.12,0,0,1,2.29,5.79V33h9.43V41.6a7.93,7.93,0,0,1-2.3,5.89,7.57,7.57,0,0,1-5.52,2.3h-1.61V78.43c0,2.73,1.53,4.11,4.61,4.11,3.86,0,4.82,1.53,4.82,5ZM321.92,14h12.87l28.68,82.8h-17.2L341,79.71H310.22L305.16,96.8H287.94l26.18-77.29c1.37-3.67,4-5.51,7.8-5.51m3.67,16.59-11,35.14h22Z"/></svg>